# xmcd CD database file
#
# Track frame offsets:
#	182
#	41187
#	64105
#	92102
#	112322
#	140880
#	175422
#
# Disc length: 2614 seconds
#
# Revision: 1
# Processed by: cddbd v1.5PL3 Copyright (c) Steve Scherf et al.
# Submitted via: CDex 1.51
#
DISCID=6f0a3407
DTITLE=John Mayall - Simply The Blues
DYEAR=1969
DGENRE=Blues
TTITLE0=California
TTITLE1=I'm Gonna Fight For You
TTITLE2=The Laws Must Change
TTITLE3=Saw Will Gulch Road
TTITLE4=So Hard To Share
TTITLE5=Thoughts About Roxanne
TTITLE6=Room To Move
EXTD=YEAR: 1969
EXTT0=
EXTT1=
EXTT2=
EXTT3=
EXTT4=
EXTT5=
EXTT6=
PLAYORDER=
